<?xml version="1.0" encoding="utf-8"?>
<!-- Generator: Adobe Illustrator 22.0.1, SVG Export Plug-In . SVG Version: 6.00 Build 0)  -->
<svg version="1.1" id="Layer_1" xmlns="http://www.w3.org/2000/svg" xmlns:xlink="http://www.w3.org/1999/xlink" x="0px" y="0px"
	 viewBox="0 0 16 16" style="enable-background:new 0 0 16 16;" xml:space="preserve">
<rect x="9" y="12" style="fill:#676767;" width="5" height="1"/>
<polygon style="fill:#676767;" points="7,12 5,12 5,10 4,10 4,12 2,12 2,13 4,13 4,15 5,15 5,13 7,13 "/>
<g>
	<rect x="2" y="2" style="fill:#9A9999;" width="5" height="1"/>
	<rect x="9" y="2" style="fill:#9A9999;" width="5" height="1"/>
	<path style="fill:#9A9999;" d="M11,0H3H0v4v1v4h16V5V4V0H11z M15,8H1V5h2h1h6h1h4V8z M15,4h-4h-1H4H3H1V1h2h8h4V4z"/>
	<rect x="2" y="6" style="fill:#9A9999;" width="5" height="1"/>
	<rect x="9" y="6" style="fill:#9A9999;" width="5" height="1"/>
</g>
<g>
	<path style="fill:#FFFFFF;" d="M15,5h-4h-1H4H3H1v3h14V5z M7,7H2V6h5V7z M14,7H9V6h5V7z"/>
	<path style="fill:#FFFFFF;" d="M3,1H1v3h2h1h6h1h4V1h-4H3z M7,3H2V2h5V3z M14,3H9V2h5V3z"/>
</g>
</svg>
